<svg width="24" height="24" fill="none" xmlns="http://www.w3.org/2000/svg"><g clip-path="url(#a)" fill-rule="evenodd" clip-rule="evenodd" fill="#000"><path d="M21.707 7.293a1 1 0 0 1 0 1.414l-13 13A1 1 0 0 1 8 22H4a1 1 0 0 1-1-1v-4a1 1 0 0 1 .293-.707l13-13a1 1 0 1 1 1.414 1.414L5 17.414V20h2.586L20.293 7.293a1 1 0 0 1 1.414 0z"/><path d="M16.293 3.293a1 1 0 0 1 1.414 0l4 4a1 1 0 0 1-1.414 1.414l-4-4a1 1 0 0 1 0-1.414zM17.293 11.707l-4-4 1.414-1.414 4 4-1.414 1.414z"/></g><defs><clipPath id="a"><path fill="#fff" d="M0 0h24v24H0z"/></clipPath></defs></svg>